<svg width="14" height="14" viewBox="0 0 14 14" fill="none" xmlns="http://www.w3.org/2000/svg">
<path fill-rule="evenodd" clip-rule="evenodd" d="M5.66659 11C2.72107 11 0.333252 8.6122 0.333252 5.66668C0.333252 2.72116 2.72107 0.333344 5.66659 0.333344C8.6121 0.333344 10.9999 2.72116 10.9999 5.66668C10.9999 6.89915 10.5819 8.03397 9.87983 8.93709L13.4713 12.5286L12.5285 13.4714L8.93703 9.87991C8.0339 10.582 6.89907 11 5.66659 11ZM9.66659 5.66668C9.66659 7.87582 7.87572 9.66668 5.66659 9.66668C3.45745 9.66668 1.66659 7.87582 1.66659 5.66668C1.66659 3.45754 3.45745 1.66668 5.66659 1.66668C7.87572 1.66668 9.66659 3.45754 9.66659 5.66668Z" fill="black"/>
</svg>
